<mxfile host="app.diagrams.net" agent="Mozilla/5.0 (Windows NT 10.0; Win64; x64) AppleWebKit/537.36 (KHTML, like Gecko) Chrome/133.0.0.0 Safari/537.36" version="26.0.16">
  <diagram name="第 1 页" id="wRzjWBVmMDW94iyuGcXo">
    <mxGraphModel dx="819" dy="441" grid="1" gridSize="10" guides="1" tooltips="1" connect="1" arrows="1" fold="1" page="1" pageScale="1" pageWidth="1654" pageHeight="1169" math="0" shadow="0">
      <root>
        <mxCell id="0" />
        <mxCell id="1" parent="0" />
        <mxCell id="DzZz1WvGryRCd3KBjyy3-1" value="整个亚洲osm数据" style="rounded=0;whiteSpace=wrap;html=1;" vertex="1" parent="1">
          <mxGeometry x="300" y="130" width="160" height="40" as="geometry" />
        </mxCell>
        <mxCell id="DzZz1WvGryRCd3KBjyy3-2" value="裁剪&lt;div&gt;整个亚洲osm数据&lt;/div&gt;" style="rounded=0;whiteSpace=wrap;html=1;" vertex="1" parent="1">
          <mxGeometry x="310" y="240" width="160" height="40" as="geometry" />
        </mxCell>
        <mxCell id="DzZz1WvGryRCd3KBjyy3-3" value="提取范围内的铁路、建筑、道路数据" style="rounded=0;whiteSpace=wrap;html=1;" vertex="1" parent="1">
          <mxGeometry x="310" y="340" width="180" height="40" as="geometry" />
        </mxCell>
        <mxCell id="DzZz1WvGryRCd3KBjyy3-4" value="使用现在、未来不" style="rounded=0;whiteSpace=wrap;html=1;" vertex="1" parent="1">
          <mxGeometry x="310" y="460" width="180" height="40" as="geometry" />
        </mxCell>
      </root>
    </mxGraphModel>
  </diagram>
</mxfile>
